<svg aria-hidden="true" style="position: absolute; width: 0; height: 0; overflow: hidden;" version="1.1" xmlns="http://www.w3.org/2000/svg" xmlns:xlink="http://www.w3.org/1999/xlink">
<defs>
<symbol id="icon-cross-icon" viewBox="0 0 32 32">
<path d="M30.943 32l-10.252-15.591 9.759-16.409h-9.311l-4.871 9.337-5.549-9.337h-9.309l10.139 15.399-10.633 16.601h8.972l6.004-9.673 5.772 9.673h9.279z"></path>
</symbol>
<symbol id="icon-icon-1" viewBox="0 0 38 32">
<path d="M19.406 25.794h-0.477c-0.203 0-0.367 0.164-0.367 0.367s0.164 0.367 0.367 0.367h0.477c0.203 0 0.367-0.164 0.367-0.367s-0.164-0.367-0.367-0.367z"></path>
<path d="M28.101 20.526c-0.148-0.612-0.446-1.185-0.861-1.653-0.5-0.564-1.068-0.876-1.523-1.048v-5.574c0.715-0.271 1.224-0.96 1.224-1.769v-0.717c0-1.044-0.849-1.894-1.894-1.894h-2.978v-0.834c0-0.881-0.717-1.597-1.597-1.597h-2.525c-0.881 0-1.597 0.717-1.597 1.597v0.834h-3.116c-1.044 0-1.894 0.849-1.894 1.894v0.717c0 0.809 0.51 1.498 1.224 1.769v5.574c-0.455 0.172-1.023 0.483-1.523 1.048-0.525 0.592-0.758 1.226-0.861 1.653l-0.011 0.043v3.254l0.003 0.048c0.032 0.239 0.145 0.697 0.544 1.087 0.368 0.359 0.79 0.47 1.009 0.505l0.874 0.004c0.051 0.234 0.171 0.518 0.439 0.752 0.337 0.294 0.721 0.341 0.929 0.341 0.026 0 0.050 0 0.070-0.001h1.362c0.011 0 0.020 0.003 0.030 0.003s0.020-0.003 0.030-0.003h2.052c0.203 0 0.367-0.164 0.367-0.367s-0.164-0.367-0.367-0.367h-1.715v-3.1s0 0 0 0c0.471-1.389 1.68-2.353 3.078-2.458 1.582-0.118 3.068 0.893 3.61 2.459v3.1h-1.715c-0.203 0-0.367 0.164-0.367 0.365s0.164 0.367 0.367 0.367h2.052c0.011 0 0.020 0.003 0.030 0.003s0.020-0.003 0.030-0.003h1.362c0.020 0 0.043 0.001 0.070 0.001 0.21 0 0.592-0.047 0.929-0.341 0.269-0.234 0.387-0.518 0.438-0.751h0.846l0.028-0.004c0.219-0.035 0.642-0.146 1.009-0.505 0.399-0.39 0.512-0.847 0.544-1.085l0.003-3.303-0.011-0.043zM20.909 15.664v-0.181c0-0.501-0.408-0.909-0.909-0.909h-1.718c-0.501 0-0.909 0.408-0.909 0.909v0.181h-2.358c-0.302-0.090-0.584-0.224-0.841-0.403-0.355-0.244-0.654-0.572-0.876-0.951v-1.935h2.166s0.004 0 0.005 0 0.004 0 0.005 0h7.318c0.020 0.004 0.042 0.007 0.063 0.007s0.043-0.003 0.063-0.007h2.064v1.935c-0.222 0.379-0.522 0.706-0.876 0.951-0.257 0.177-0.539 0.313-0.841 0.403h-2.358zM20.177 15.483v0.423c0 0.571-0.465 1.035-1.035 1.035s-1.035-0.465-1.035-1.036v-0.423c0-0.098 0.079-0.177 0.177-0.177h1.718c0.098 0 0.177 0.079 0.177 0.177zM22.491 8.605v3.039h-6.655v-3.039h6.655zM26.209 9.765v0.717c0 0.539-0.368 0.99-0.866 1.121-0.046 0-0.089 0.009-0.129 0.026-0.055 0.008-0.11 0.013-0.167 0.013h-1.824v-3.039h1.824c0.641 0 1.16 0.521 1.16 1.16zM17.084 7.038c0-0.477 0.388-0.865 0.865-0.865h2.525c0.477 0 0.865 0.388 0.865 0.865v0.834h-4.255v-0.834zM12.074 10.481v-0.717c0-0.641 0.521-1.16 1.16-1.16h1.87v3.039h-1.87c-0.056 0-0.111-0.005-0.167-0.013-0.040-0.016-0.083-0.026-0.129-0.026-0.497-0.132-0.866-0.583-0.866-1.121zM11.229 24.432c-0.23-0.224-0.302-0.486-0.326-0.637v-3.14c0.089-0.345 0.279-0.838 0.688-1.297 0.314-0.355 0.662-0.586 0.975-0.737v6.112h-0.751c-0.138-0.026-0.377-0.098-0.586-0.301zM14.028 25.823h-0.023c-0.066 0.005-0.295 0.005-0.485-0.158-0.248-0.216-0.224-0.553-0.223-0.567v-0.015s0-9.599 0-9.599c0.144 0.138 0.297 0.266 0.459 0.379 0.337 0.234 0.709 0.408 1.107 0.518l0.048 0.013h0.152v9.428h-1.037zM18.822 19.535c-1.206 0.090-2.294 0.705-3.025 1.656v-4.796h1.647c0.214 0.737 0.893 1.277 1.698 1.277s1.484-0.541 1.698-1.277h1.647v4.808c-0.869-1.123-2.232-1.776-3.665-1.668zM24.762 25.663c-0.189 0.165-0.419 0.164-0.485 0.16h-1.060v-9.43h0.152l0.048-0.013c0.398-0.111 0.771-0.286 1.107-0.518 0.163-0.113 0.316-0.24 0.459-0.379v9.612c0.003 0.015 0.026 0.351-0.223 0.567zM27.38 23.794c-0.023 0.15-0.097 0.412-0.326 0.637-0.208 0.204-0.447 0.275-0.586 0.301h-0.751v-6.112c0.313 0.152 0.661 0.383 0.975 0.737 0.408 0.461 0.599 0.952 0.688 1.297v3.14z"></path>
<path d="M20.854 22.357c0-0.203-0.164-0.367-0.367-0.367h-2.775c-0.203 0-0.367 0.164-0.367 0.367s0.164 0.367 0.367 0.367h2.775c0.203 0 0.367-0.164 0.367-0.367z"></path>
</symbol>
<symbol id="icon-icon-2" viewBox="0 0 38 32">
<path d="M12.478 11.996h-1.639c-0.203 0-0.367 0.164-0.367 0.367s0.164 0.367 0.367 0.367h1.639c0.203 0 0.367-0.164 0.367-0.367s-0.164-0.367-0.367-0.367z"></path>
<path d="M29.36 25.111h-4.217l-2.572-1.742c-0.060-0.042-0.132-0.063-0.206-0.063h-0.822v-1.718c0.575-1.026 1.198-2.133 1.821-3.241 0.039-0.069 0.078-0.137 0.116-0.207h3.010l2.506 4.122c0.069 0.113 0.189 0.176 0.313 0.176 0.064 0 0.13-0.017 0.189-0.054 0.173-0.105 0.228-0.33 0.122-0.504l-4.395-7.231c-0.067-0.111-0.189-0.179-0.32-0.176s-0.25 0.074-0.313 0.188c-0.587 1.049-1.228 2.187-1.868 3.324-0.399 0.708-0.796 1.416-1.183 2.103v-5.785c0.377-0.314 0.58-0.802 0.488-1.279-0.095-0.493-0.493-0.899-1.014-1.034-0.030-0.008-0.062-0.012-0.093-0.012h-3.061l-2.183-2.182c-0.069-0.069-0.161-0.107-0.259-0.107h-0.771c-0.019-0.11-0.055-0.214-0.107-0.309 0.431-0.42 0.676-0.993 0.676-1.601 0-1.233-1.003-2.238-2.238-2.238s-2.238 1.003-2.238 2.238c0 0.385 0.098 0.756 0.279 1.084h-1.469c-0.549 0-0.998 0.447-0.998 0.998v0.748c0 0.243 0.089 0.467 0.234 0.641v4.619c0 0.649 0.514 1.178 1.158 1.205v8.738h-0.966c-0.203 0-0.367 0.164-0.367 0.367s0.164 0.367 0.367 0.367h1.331s0 0 0 0 0 0 0 0h3.12c0.097 0 0.191-0.039 0.259-0.107l2.4-2.4h3.672s0.003 0 0.004 0 0.003 0 0.004 0h2.479l2.572 1.742c0.060 0.042 0.132 0.063 0.206 0.063h4.33c0.203 0 0.367-0.164 0.367-0.367s-0.164-0.367-0.367-0.367zM24.925 15.568l1.119 1.84h-2.152c0.352-0.626 0.7-1.244 1.034-1.84zM18.577 22.139c-0.283-0.316-0.633-0.432-0.878-0.474 0.003-0.020 0.007-0.040 0.007-0.060v-3.336c0-0.039-0.007-0.079-0.019-0.117-0.141-0.42-0.349-0.813-0.616-1.164-0.302-0.396-0.67-0.731-1.096-0.994-0.004-0.003-0.009-0.004-0.013-0.007v-2.319l0.825 0.825c0.069 0.069 0.161 0.107 0.259 0.107h2.361v8.706h-0.458c0.044-0.424-0.085-0.849-0.368-1.166zM14.265 24.831c-0.14-0.15-0.3-0.282-0.474-0.39-0.222-0.137-0.466-0.234-0.72-0.29 0.001-0.012 0.005-0.024 0.005-0.038l0.193-4.6c0.048-0.27 0.283-0.477 0.547-0.474 0.293 0.003 0.541 0.266 0.543 0.573 0 0.007 0 0.013 0 0.019 0.020 0.369 0.030 0.739 0.028 1.099 0 0.136 0.056 1.602 0.156 2.564 0.016 0.149 0.078 0.438 0.321 0.686 0.042 0.043 0.087 0.081 0.136 0.116l-0.735 0.735zM15.12 20.733c0.001-0.372-0.008-0.753-0.028-1.134-0.008-0.706-0.573-1.285-1.268-1.293-0.004 0-0.008 0-0.013 0-0.63 0-1.174 0.478-1.268 1.116-0.001 0.012-0.003 0.026-0.004 0.038l-0.195 4.622c0 0.008 0 0.015 0.001 0.023h-1.665v-7.028h2.544c0.357 0 0.678-0.157 0.9-0.406h1.549c0.313 0.207 0.586 0.462 0.813 0.759 0.208 0.273 0.371 0.575 0.486 0.9v3.274c0 0.013 0.003 0.027 0.004 0.039l-1.819 0.004c-0.026-0.477-0.039-0.853-0.039-0.915zM9.811 13.492c-0.158 0-0.289-0.129-0.289-0.289v-1.6c0.011 0 0.020 0.001 0.031 0.001h4.114c0.011 0 0.020 0 0.031-0.001v1.6c0 0.158-0.129 0.289-0.289 0.289h-3.599zM20.135 14.599h0.674v8.706h-0.674v-8.706zM20.81 13.867h-0.674v-1.154h0.674v1.154zM19.403 12.713v1.154h-2.209l-0.525-0.525 0.704-0.815 0.079 0.079c0.069 0.069 0.161 0.107 0.259 0.107h1.692zM16.854 12.008l-0.704 0.815-0.298-0.298c-0.105-0.105-0.262-0.136-0.399-0.079s-0.226 0.191-0.226 0.338v3.156h-0.798c0.001-0.023 0.004-0.047 0.004-0.070v-4.619c0.145-0.173 0.234-0.396 0.234-0.641v-0.187h0.603l1.585 1.585zM11.917 8.845c-0.285-0.285-0.441-0.662-0.441-1.064 0-0.83 0.676-1.504 1.504-1.504s1.504 0.676 1.504 1.504c0 0.437-0.188 0.845-0.514 1.131-0.095-0.031-0.196-0.047-0.302-0.047h-1.735s-0.011-0.013-0.016-0.020zM9.29 9.862c0-0.146 0.118-0.265 0.265-0.265h4.114c0.146 0 0.265 0.118 0.265 0.265v0.193s0 0 0 0 0 0 0 0v0.552c0 0.146-0.118 0.265-0.265 0.265h-4.114c-0.146 0-0.265-0.118-0.265-0.265v-0.748zM9.524 15.87v-1.687c0.091 0.027 0.188 0.042 0.289 0.042h0.341v0.545c0 0.203 0.164 0.367 0.367 0.367s0.367-0.164 0.367-0.367v-0.545h1.453v0.545c0 0.203 0.164 0.367 0.367 0.367s0.367-0.164 0.367-0.367v-0.545h0.341c0.101 0 0.197-0.015 0.289-0.042v1.687c0 0.262-0.214 0.475-0.475 0.475h-3.226c-0.262 0-0.475-0.214-0.475-0.475zM13.284 25.812h-2.603v-0.974h2.060c0.168 0.017 0.414 0.071 0.665 0.226 0.142 0.087 0.254 0.188 0.341 0.285l-0.463 0.463zM15.942 23.305c-0.097 0-0.191 0.039-0.259 0.107l-0.146 0.146c-0.060-0.021-0.111-0.051-0.15-0.090-0.091-0.093-0.111-0.206-0.116-0.25-0.026-0.253-0.050-0.544-0.070-0.838l2.235-0.005c0.062 0 0.376 0.008 0.595 0.253 0.161 0.18 0.223 0.431 0.175 0.677h-2.264z"></path>
<path d="M25.659 11.738c1.187 0 2.154-0.967 2.154-2.154s-0.967-2.154-2.154-2.154-2.154 0.967-2.154 2.154 0.967 2.154 2.154 2.154zM25.659 8.163c0.784 0 1.422 0.638 1.422 1.422s-0.638 1.422-1.422 1.422-1.422-0.638-1.422-1.422 0.638-1.422 1.422-1.422z"></path>
<path d="M22.013 9.911h0.658c0.203 0 0.367-0.164 0.367-0.367s-0.164-0.367-0.367-0.367h-0.658c-0.203 0-0.367 0.164-0.367 0.367s0.164 0.367 0.367 0.367z"></path>
<path d="M28.329 9.544c0 0.203 0.164 0.367 0.367 0.367h0.611c0.203 0 0.367-0.164 0.367-0.367s-0.164-0.367-0.367-0.367h-0.611c-0.203 0-0.367 0.164-0.367 0.367z"></path>
<path d="M25.659 6.846c0.203 0 0.367-0.164 0.367-0.367v-0.658c0-0.203-0.164-0.367-0.367-0.367s-0.367 0.164-0.367 0.367v0.658c0 0.203 0.164 0.367 0.367 0.367z"></path>
<path d="M25.294 12.691v0.658c0 0.203 0.164 0.367 0.367 0.367s0.367-0.164 0.367-0.367v-0.658c0-0.203-0.164-0.367-0.367-0.367s-0.367 0.164-0.367 0.367z"></path>
<path d="M23.258 11.411l-0.465 0.465c-0.142 0.144-0.142 0.375 0 0.518 0.071 0.071 0.165 0.107 0.259 0.107s0.188-0.036 0.259-0.107l0.465-0.465c0.142-0.144 0.142-0.375 0-0.518-0.144-0.144-0.375-0.142-0.518 0z"></path>
<path d="M27.777 7.776c0.094 0 0.188-0.036 0.259-0.107l0.432-0.432c0.142-0.144 0.142-0.375 0-0.518-0.144-0.142-0.375-0.142-0.518 0l-0.432 0.432c-0.142 0.144-0.142 0.375 0 0.518 0.071 0.071 0.165 0.107 0.259 0.107z"></path>
<path d="M23.206 7.647c0.071 0.071 0.165 0.107 0.259 0.107s0.188-0.036 0.259-0.107c0.142-0.144 0.142-0.375 0-0.518l-0.465-0.465c-0.144-0.142-0.375-0.142-0.518 0-0.142 0.144-0.142 0.375 0 0.518l0.465 0.465z"></path>
<path d="M27.597 11.522c-0.142 0.142-0.144 0.375 0 0.518l0.465 0.465c0.071 0.071 0.165 0.107 0.259 0.107s0.188-0.036 0.259-0.107c0.144-0.142 0.144-0.375 0-0.518l-0.465-0.465c-0.142-0.142-0.375-0.142-0.518 0z"></path>
</symbol>
<symbol id="icon-icon-3" viewBox="0 0 38 32">
<path d="M13.223 10.731c0.933 0 1.767-0.557 2.125-1.42 0.078-0.187-0.011-0.402-0.197-0.478-0.187-0.078-0.402 0.011-0.478 0.197-0.243 0.587-0.811 0.967-1.448 0.967-0.864 0-1.566-0.702-1.566-1.566s0.702-1.566 1.566-1.566c0.592 0 1.127 0.328 1.397 0.856 0.091 0.18 0.313 0.251 0.493 0.16s0.251-0.313 0.16-0.493c-0.395-0.775-1.181-1.256-2.048-1.256-1.268 0-2.298 1.031-2.298 2.298s1.031 2.298 2.298 2.298z"></path>
<path d="M9.142 8.674h1.121c0.203 0 0.367-0.164 0.367-0.367s-0.164-0.367-0.367-0.367h-1.121c-0.203 0-0.367 0.164-0.367 0.367s0.164 0.367 0.367 0.367z"></path>
<path d="M12.891 11.325v1.121c0 0.203 0.164 0.367 0.367 0.367s0.367-0.164 0.367-0.367v-1.121c0-0.203-0.164-0.367-0.367-0.367s-0.367 0.164-0.367 0.367z"></path>
<path d="M15.815 8.308c0 0.203 0.164 0.367 0.367 0.367h1.121c0.203 0 0.367-0.164 0.367-0.367s-0.164-0.367-0.367-0.367h-1.121c-0.203 0-0.367 0.164-0.367 0.367z"></path>
<path d="M10.784 10.176l-0.794 0.794c-0.142 0.144-0.142 0.375 0 0.518 0.071 0.071 0.165 0.107 0.259 0.107s0.188-0.036 0.259-0.107l0.794-0.794c0.142-0.144 0.142-0.375 0-0.518-0.144-0.142-0.375-0.142-0.518 0z"></path>
<path d="M15.033 10.195c-0.142 0.142-0.142 0.375 0 0.518l0.794 0.794c0.071 0.071 0.165 0.107 0.259 0.107s0.188-0.036 0.259-0.107c0.142-0.144 0.142-0.375 0-0.518l-0.794-0.794c-0.144-0.144-0.375-0.142-0.518 0z"></path>
<path d="M10.942 6.621c0.071 0.071 0.165 0.107 0.259 0.107s0.188-0.036 0.259-0.107c0.142-0.144 0.142-0.375 0-0.518l-0.794-0.794c-0.142-0.142-0.375-0.142-0.518 0s-0.144 0.375 0 0.518l0.794 0.794z"></path>
<path d="M15.226 6.619c0.094 0 0.188-0.036 0.259-0.107l0.794-0.794c0.142-0.144 0.142-0.375 0-0.518-0.144-0.142-0.375-0.142-0.518 0l-0.794 0.794c-0.142 0.144-0.142 0.375 0 0.518 0.071 0.071 0.165 0.107 0.259 0.107z"></path>
<path d="M31.981 25.032c-0.218-0.334-0.573-0.536-0.95-0.578-1.035-1.947-2.203-4.107-3.334-6.198-0.361-0.669-0.727-1.346-1.091-2.019-0.015-0.063-0.046-0.122-0.091-0.171-0.778-1.441-1.545-2.867-2.247-4.19-0.063-0.12-0.188-0.195-0.324-0.195v0c-0.136 0-0.261 0.075-0.324 0.196l-1.939 3.696-2.839-5.077c-0.064-0.116-0.187-0.188-0.32-0.188h-0.004c-0.134 0.001-0.257 0.077-0.32 0.195l-2.231 4.201-1.206-0.615c-0.18-0.091-0.399-0.021-0.492 0.158l-3.056 5.903-0.375-0.755c-0.062-0.125-0.189-0.204-0.328-0.204v0c-0.14 0-0.266 0.079-0.328 0.204l-3.328 6.777h-0.395c-0.203 0-0.367 0.164-0.367 0.367s0.164 0.367 0.367 0.367h0.622s0 0 0 0c0 0 0 0 0 0h9.254s0 0 0.001 0c0 0 0 0 0 0h4.205s0 0 0 0c0 0 0 0 0 0h5.388c0.203 0 0.367-0.164 0.367-0.367s-0.164-0.367-0.367-0.367h-5.031c0.012-0.097 0.039-0.203 0.094-0.31 0.226-0.447 0.735-0.543 0.792-0.552 0.11-0.019 0.207-0.086 0.261-0.184 0.196-0.353 0.569-0.572 0.946-0.56 0.453 0.016 0.729 0.351 0.78 0.416 0.078 0.102 0.204 0.156 0.332 0.142 0.128-0.015 0.239-0.094 0.293-0.211 0.089-0.193 0.279-0.321 0.469-0.317 0.216 0.005 0.359 0.181 0.375 0.201 0.090 0.116 0.24 0.167 0.383 0.13 0.142-0.038 0.248-0.156 0.27-0.301 0.086-0.573 0.544-1.023 1.116-1.093 0.588-0.071 1.147 0.269 1.359 0.826 0.043 0.113 0.138 0.197 0.255 0.226s0.24-0.001 0.33-0.082c0.318-0.283 0.723-0.279 0.929-0.113 0.208 0.168 0.207 0.482 0.207 0.518-0.003 0.13 0.063 0.251 0.175 0.32 0.11 0.069 0.248 0.073 0.364 0.012 0.257-0.136 0.58-0.054 0.737 0.188 0.14 0.214 0.113 0.494-0.051 0.681h-3.881c-0.203 0-0.367 0.164-0.367 0.367s0.164 0.367 0.367 0.367h4.023c0.081 0 0.158-0.027 0.223-0.075 0.536-0.41 0.669-1.174 0.301-1.738zM23.947 12.832c0.596 1.119 1.232 2.301 1.875 3.492-0.778 1.283-1.185 1.296-1.261 1.284-0.157-0.024-0.329-0.251-0.481-0.451-0.228-0.301-0.512-0.676-0.967-0.61-0.363 0.054-0.524 0.345-0.653 0.58-0.102 0.184-0.197 0.359-0.379 0.462-0.171 0.097-0.394 0.118-0.666 0.067l2.532-4.824zM11.709 20.788l3.043-5.879 1.203 0.614c0.179 0.091 0.396 0.021 0.49-0.154l2.084-3.926 2.745 4.908-5.156 9.826h-1.921l-2.604-5.257c0.047-0.032 0.087-0.077 0.116-0.132zM10.512 20.388l1.233 2.489c-0.236 0.372-0.43 0.498-0.529 0.5-0.090-0.003-0.208-0.126-0.324-0.244-0.189-0.196-0.447-0.465-0.837-0.412-0.324 0.043-0.485 0.281-0.603 0.453-0.093 0.136-0.173 0.253-0.328 0.333-0.054 0.028-0.113 0.048-0.175 0.062l1.562-3.18zM8.584 24.315c0.055 0.004 0.11 0.008 0.162 0.008 0.263 0 0.502-0.056 0.717-0.168 0.317-0.165 0.477-0.399 0.594-0.569 0.032-0.047 0.074-0.107 0.101-0.136 0.051 0.027 0.148 0.128 0.208 0.189 0.185 0.193 0.441 0.458 0.83 0.469 0.324 0.008 0.627-0.153 0.916-0.493l1.269 2.56h-5.711l0.913-1.86zM28.852 23.707c-0.415-0.631-1.155-0.988-1.929-0.895-0.704 0.086-1.297 0.536-1.586 1.159-0.126-0.058-0.277-0.098-0.449-0.102-0.324-0.005-0.631 0.118-0.864 0.338-0.23-0.179-0.565-0.355-1.002-0.371-0.606-0.019-1.175 0.279-1.522 0.791-0.297 0.082-0.854 0.31-1.155 0.905-0.114 0.224-0.163 0.445-0.176 0.641h-3.223l4.118-7.848c0.219 0.059 0.426 0.089 0.618 0.089 0.283 0 0.537-0.063 0.762-0.191 0.363-0.206 0.535-0.518 0.659-0.745 0.035-0.064 0.086-0.156 0.121-0.199 0.071 0.050 0.196 0.214 0.274 0.317 0.224 0.297 0.504 0.665 0.955 0.733 0.564 0.086 1.134-0.322 1.769-1.271 0.278 0.516 0.557 1.031 0.834 1.543 0.895 1.656 1.813 3.355 2.671 4.957-0.286-0.039-0.592 0.009-0.872 0.144z"></path>
</symbol>
<symbol id="icon-icon-4" viewBox="0 0 38 32">
<path d="M23.073 4.971c0 2.254-1.827 4.082-4.082 4.082s-4.082-1.827-4.082-4.082c0-2.254 1.827-4.082 4.082-4.082s4.082 1.827 4.082 4.082z"></path>
<path d="M23.073 16.149c0 2.254-1.827 4.082-4.082 4.082s-4.082-1.827-4.082-4.082c0-2.254 1.827-4.082 4.082-4.082s4.082 1.827 4.082 4.082z"></path>
<path d="M23.073 27.329c0 2.254-1.827 4.082-4.082 4.082s-4.082-1.827-4.082-4.082c0-2.254 1.827-4.082 4.082-4.082s4.082 1.827 4.082 4.082z"></path>
</symbol>
<symbol id="icon-logo" viewBox="0 0 38 32">
<path d="M14.406 6.582c0 2.499-2.026 4.525-4.525 4.525s-4.525-2.026-4.525-4.525c0-2.499 2.026-4.525 4.525-4.525s4.525 2.026 4.525 4.525z"></path>
<path d="M3.55 25.396h31.182c-0.584-0.97-1.168-1.938-1.753-2.908-0.066-0.118-0.654-1.132-1.86-1.299-0.951-0.132-1.911 0.314-2.469 1.143-2.225-3.841-4.45-7.681-6.675-11.522-0.075-0.105-0.752-1.018-1.966-1.052-1.297-0.035-2.043 0.967-2.103 1.052-1.28 2.195-2.56 4.389-3.84 6.584-0.502-0.625-1.006-1.249-1.508-1.875-0.097-0.106-0.563-0.594-1.326-0.641-0.905-0.055-1.487 0.556-1.563 0.641-2.039 3.292-4.079 6.584-6.118 9.876z"></path>
<path d="M1.365 27.91h35.552c0.561 0 1.015 0.455 1.015 1.015v0.001c0 0.561-0.455 1.015-1.015 1.015h-35.552c-0.561 0-1.015-0.455-1.015-1.015v-0.001c0-0.561 0.455-1.015 1.015-1.015z"></path>
</symbol>
<symbol id="icon-facebook-1" viewBox="0 0 32 32">
<path fill="#f4f4fd" style="fill: var(--color1, #f4f4fd)" d="M21.329 5.313h2.921v-5.088c-0.504-0.069-2.237-0.225-4.256-0.225-4.212 0-7.097 2.649-7.097 7.519v4.481h-4.648v5.688h4.648v14.312h5.699v-14.311h4.46l0.708-5.688h-5.169v-3.919c0.001-1.644 0.444-2.769 2.735-2.769z"></path>
</symbol>
<symbol id="icon-instagram-2" viewBox="0 0 32 32">
<path fill="#f4f4fd" style="fill: var(--color1, #f4f4fd)" d="M31.969 9.408c-0.075-1.7-0.35-2.869-0.744-3.882-0.406-1.075-1.031-2.038-1.851-2.838-0.8-0.813-1.769-1.444-2.832-1.844-1.019-0.394-2.181-0.669-3.882-0.744-1.713-0.081-2.257-0.1-6.601-0.1s-4.888 0.019-6.595 0.094c-1.7 0.075-2.869 0.35-3.882 0.744-1.075 0.406-2.038 1.031-2.838 1.85-0.813 0.8-1.444 1.769-1.844 2.832-0.394 1.019-0.669 2.182-0.744 3.882-0.081 1.713-0.1 2.257-0.1 6.601s0.019 4.888 0.094 6.595c0.075 1.7 0.35 2.869 0.744 3.882 0.406 1.075 1.038 2.038 1.85 2.838 0.8 0.813 1.769 1.444 2.832 1.844 1.019 0.394 2.182 0.669 3.882 0.744 1.706 0.075 2.25 0.094 6.595 0.094s4.888-0.019 6.595-0.094c1.7-0.075 2.869-0.35 3.882-0.744 2.151-0.831 3.851-2.532 4.682-4.682 0.394-1.019 0.669-2.182 0.744-3.882 0.075-1.707 0.094-2.25 0.094-6.595s-0.006-4.888-0.081-6.595zM29.087 22.473c-0.069 1.563-0.331 2.407-0.55 2.969-0.538 1.394-1.644 2.5-3.038 3.038-0.563 0.219-1.413 0.481-2.969 0.55-1.688 0.075-2.194 0.094-6.464 0.094s-4.782-0.019-6.464-0.094c-1.563-0.069-2.407-0.331-2.969-0.55-0.694-0.256-1.325-0.663-1.838-1.194-0.531-0.519-0.938-1.144-1.194-1.838-0.219-0.563-0.481-1.413-0.55-2.969-0.075-1.688-0.094-2.194-0.094-6.464s0.019-4.782 0.094-6.464c0.069-1.563 0.331-2.407 0.55-2.969 0.256-0.694 0.663-1.325 1.2-1.838 0.519-0.531 1.144-0.938 1.838-1.194 0.563-0.219 1.413-0.481 2.969-0.55 1.688-0.075 2.194-0.094 6.464-0.094 4.276 0 4.782 0.019 6.464 0.094 1.563 0.069 2.407 0.331 2.969 0.55 0.694 0.256 1.325 0.662 1.838 1.194 0.531 0.519 0.938 1.144 1.194 1.838 0.219 0.563 0.481 1.413 0.55 2.969 0.075 1.688 0.094 2.194 0.094 6.464s-0.019 4.77-0.094 6.458z"></path>
<path fill="#f4f4fd" style="fill: var(--color1, #f4f4fd)" d="M16.059 7.783c-4.538 0-8.22 3.682-8.22 8.22s3.682 8.22 8.22 8.22c4.539 0 8.22-3.682 8.22-8.22s-3.682-8.22-8.22-8.22zM16.059 21.335c-2.944 0-5.332-2.388-5.332-5.332s2.388-5.332 5.332-5.332c2.945 0 5.332 2.388 5.332 5.332s-2.388 5.332-5.332 5.332z"></path>
<path fill="#f4f4fd" style="fill: var(--color1, #f4f4fd)" d="M26.524 7.458c0 1.060-0.859 1.919-1.919 1.919s-1.919-0.859-1.919-1.919c0-1.060 0.859-1.919 1.919-1.919s1.919 0.859 1.919 1.919z"></path>
</symbol>
<symbol id="icon-linkedin-1" viewBox="0 0 32 32">
<path fill="#f4f4fd" style="fill: var(--color1, #f4f4fd)" d="M31.992 32v-0.001h0.008v-11.736c0-5.741-1.236-10.164-7.948-10.164-3.227 0-5.392 1.771-6.276 3.449h-0.093v-2.913h-6.364v21.364h6.627v-10.579c0-2.785 0.528-5.479 3.977-5.479 3.399 0 3.449 3.179 3.449 5.657v10.401h6.62z"></path>
<path fill="#f4f4fd" style="fill: var(--color1, #f4f4fd)" d="M0.528 10.636h6.635v21.364h-6.635v-21.364z"></path>
<path fill="#f4f4fd" style="fill: var(--color1, #f4f4fd)" d="M3.843 0c-2.121 0-3.843 1.721-3.843 3.843s1.721 3.879 3.843 3.879c2.121 0 3.843-1.757 3.843-3.879-0.001-2.121-1.723-3.843-3.843-3.843v0z"></path>
</symbol>
<symbol id="icon-twitter-1" viewBox="0 0 32 32">
<path fill="#f4f4fd" style="fill: var(--color1, #f4f4fd)" d="M32 6.078c-1.19 0.522-2.458 0.868-3.78 1.036 1.36-0.812 2.398-2.088 2.886-3.626-1.268 0.756-2.668 1.29-4.16 1.588-1.204-1.282-2.92-2.076-4.792-2.076-3.632 0-6.556 2.948-6.556 6.562 0 0.52 0.044 1.020 0.152 1.496-5.454-0.266-10.28-2.88-13.522-6.862-0.566 0.982-0.898 2.106-0.898 3.316 0 2.272 1.17 4.286 2.914 5.452-1.054-0.020-2.088-0.326-2.964-0.808 0 0.020 0 0.046 0 0.072 0 3.188 2.274 5.836 5.256 6.446-0.534 0.146-1.116 0.216-1.72 0.216-0.42 0-0.844-0.024-1.242-0.112 0.85 2.598 3.262 4.508 6.13 4.57-2.232 1.746-5.066 2.798-8.134 2.798-0.538 0-1.054-0.024-1.57-0.090 2.906 1.874 6.35 2.944 10.064 2.944 12.072 0 18.672-10 18.672-18.668 0-0.29-0.010-0.57-0.024-0.848 1.302-0.924 2.396-2.078 3.288-3.406z"></path>
</symbol>
</defs>
</svg>
